<svg xmlns="http://www.w3.org/2000/svg" fill="none" viewBox="0 0 128 128">
    <path d="m54 118 8 7c4 3 11 5 17 5s13-2 17-5l8-7c2-2 3-4 3-7V18a7 7 0 0 0-7-7H58a7 7 0 0 0-7 7v93c0 3 1 5 3 7Z" fill="#fff"/>
    <path d="M79 39c-8-10-23-11-32-2v52a15 15 0 0 0 15 15c13 0 23-10 23-23V39Z" fill="#FF5D01"/>
    <path d="M102 36c-11-5-22-14-24-27-3-14 3-28 19-29 18-2 33 8 33 26 0 13-11 23-25 27-1 0-2 2-3 3Z" fill="#FF5D01"/>
    <path d="M49 103c-1-1-2-3-3-3-14-4-25-14-25-27 0-18 15-28 33-26 16 1 22 15 19 29-2 13-13 22-24 27Z" fill="#FF5D01"/>
</svg>
